name rise44.8762peak52.3436fall86.788.mot
datacolumns 19
datarows 30
range 1.52499600000000 1.57332600000000
endheader
time	ground_force1_vx	ground_force1_vy	ground_force1_vz	ground_force1_px	ground_force1_py	ground_force1_pz	ground_force2_vx	ground_force2_vy	ground_force2_vz	ground_force2_px	ground_force2_py	ground_force2_pz	ground_torque1_x	ground_torque1_y	ground_torque1_z	ground_torque2_x	ground_torque2_y	ground_torque2_z	
1.52499600000000	1.33784600000000	695.24304199999995	48.22003000000000	0.19087400000000	0.00000000000000	0.11798900000000	0.00000000000000	0.00000000000000	0.00000000000000	0.00000000000000	0.00000000000000	0.00000000000000	0.00000000000000	18.05002600000000	0.00000000000000	0.00000000000000	0.00000000000000	0.00000000000000	
1.52665800000000	0.96743200000000	696.30077900000003	48.20691500000000	0.19025900000000	0.00000000000000	0.11788800000000	0.00000000000000	0.00000000000000	0.00000000000000	0.00000000000000	0.00000000000000	0.00000000000000	0.00000000000000	18.11867700000000	0.00000000000000	0.00000000000000	0.00000000000000	0.00000000000000	
1.52832400000000	0.58863300000000	697.42714999999998	48.19826300000000	0.18962000000000	0.00000000000000	0.11778700000000	0.00000000000000	0.00000000000000	0.00000000000000	0.00000000000000	0.00000000000000	0.00000000000000	0.00000000000000	18.19054100000000	0.00000000000000	0.00000000000000	0.00000000000000	0.00000000000000	
1.52999500000000	0.20097200000000	698.61948600000005	48.19391900000000	0.18895600000000	0.00000000000000	0.11768700000000	0.00000000000000	0.00000000000000	0.00000000000000	0.00000000000000	0.00000000000000	0.00000000000000	0.00000000000000	18.26556100000000	0.00000000000000	0.00000000000000	0.00000000000000	0.00000000000000	
1.53165600000000	-0.19597900000000	699.87509000000000	48.19373700000000	0.18826800000000	0.00000000000000	0.11758900000000	0.00000000000000	0.00000000000000	0.00000000000000	0.00000000000000	0.00000000000000	0.00000000000000	0.00000000000000	18.34368400000000	0.00000000000000	0.00000000000000	0.00000000000000	0.00000000000000	
1.53332800000000	-0.60259600000000	701.19124299999999	48.19758300000000	0.18755300000000	0.00000000000000	0.11749100000000	0.00000000000000	0.00000000000000	0.00000000000000	0.00000000000000	0.00000000000000	0.00000000000000	0.00000000000000	18.42485600000000	0.00000000000000	0.00000000000000	0.00000000000000	0.00000000000000	
1.53499100000000	-1.01919700000000	702.56521499999997	48.20532800000000	0.18681200000000	0.00000000000000	0.11739600000000	0.00000000000000	0.00000000000000	0.00000000000000	0.00000000000000	0.00000000000000	0.00000000000000	0.00000000000000	18.50902500000000	0.00000000000000	0.00000000000000	0.00000000000000	0.00000000000000	
1.53666400000000	-1.44604100000000	703.99427300000002	48.21685800000000	0.18604500000000	0.00000000000000	0.11730100000000	0.00000000000000	0.00000000000000	0.00000000000000	0.00000000000000	0.00000000000000	0.00000000000000	0.00000000000000	18.59614100000000	0.00000000000000	0.00000000000000	0.00000000000000	0.00000000000000	
1.53832500000000	-1.88333000000000	705.47569099999998	48.23206700000000	0.18525200000000	0.00000000000000	0.11720800000000	0.00000000000000	0.00000000000000	0.00000000000000	0.00000000000000	0.00000000000000	0.00000000000000	0.00000000000000	18.68615000000000	0.00000000000000	0.00000000000000	0.00000000000000	0.00000000000000	
1.53999600000000	-2.33120600000000	707.00675300000000	48.25085800000000	0.18443300000000	0.00000000000000	0.11711600000000	0.00000000000000	0.00000000000000	0.00000000000000	0.00000000000000	0.00000000000000	0.00000000000000	0.00000000000000	18.77899800000000	0.00000000000000	0.00000000000000	0.00000000000000	0.00000000000000	
1.54165500000000	-2.78974700000000	708.58476700000006	48.27314600000000	0.18358800000000	0.00000000000000	0.11702500000000	0.00000000000000	0.00000000000000	0.00000000000000	0.00000000000000	0.00000000000000	0.00000000000000	0.00000000000000	18.87463100000000	0.00000000000000	0.00000000000000	0.00000000000000	0.00000000000000	
1.54332900000000	-3.25896900000000	710.20706600000005	48.29885600000000	0.18271900000000	0.00000000000000	0.11693600000000	0.00000000000000	0.00000000000000	0.00000000000000	0.00000000000000	0.00000000000000	0.00000000000000	0.00000000000000	18.97299000000000	0.00000000000000	0.00000000000000	0.00000000000000	0.00000000000000	
1.54499100000000	-3.73882900000000	711.87101700000005	48.32792100000000	0.18182600000000	0.00000000000000	0.11684900000000	0.00000000000000	0.00000000000000	0.00000000000000	0.00000000000000	0.00000000000000	0.00000000000000	0.00000000000000	19.07401400000000	0.00000000000000	0.00000000000000	0.00000000000000	0.00000000000000	
1.54665700000000	-4.22921700000000	713.57402700000000	48.36028600000000	0.18091000000000	0.00000000000000	0.11676200000000	0.00000000000000	0.00000000000000	0.00000000000000	0.00000000000000	0.00000000000000	0.00000000000000	0.00000000000000	19.17763600000000	0.00000000000000	0.00000000000000	0.00000000000000	0.00000000000000	
1.54832800000000	-4.72996400000000	715.31354799999997	48.39590500000000	0.17997200000000	0.00000000000000	0.11667700000000	0.00000000000000	0.00000000000000	0.00000000000000	0.00000000000000	0.00000000000000	0.00000000000000	0.00000000000000	19.28378500000000	0.00000000000000	0.00000000000000	0.00000000000000	0.00000000000000	
1.54999000000000	-5.24083900000000	717.08707900000002	48.43474000000000	0.17901500000000	0.00000000000000	0.11659300000000	0.00000000000000	0.00000000000000	0.00000000000000	0.00000000000000	0.00000000000000	0.00000000000000	0.00000000000000	19.39238700000000	0.00000000000000	0.00000000000000	0.00000000000000	0.00000000000000	
1.55165600000000	-5.76154700000000	718.89217299999996	48.47676400000000	0.17803800000000	0.00000000000000	0.11651100000000	0.00000000000000	0.00000000000000	0.00000000000000	0.00000000000000	0.00000000000000	0.00000000000000	0.00000000000000	19.50335700000000	0.00000000000000	0.00000000000000	0.00000000000000	0.00000000000000	
1.55332700000000	-6.29174000000000	720.72644000000003	48.52195900000000	0.17704400000000	0.00000000000000	0.11643000000000	0.00000000000000	0.00000000000000	0.00000000000000	0.00000000000000	0.00000000000000	0.00000000000000	0.00000000000000	19.61660800000000	0.00000000000000	0.00000000000000	0.00000000000000	0.00000000000000	
1.55499200000000	-6.83100600000000	722.58754899999997	48.57031600000000	0.17603500000000	0.00000000000000	0.11634900000000	0.00000000000000	0.00000000000000	0.00000000000000	0.00000000000000	0.00000000000000	0.00000000000000	0.00000000000000	19.73204300000000	0.00000000000000	0.00000000000000	0.00000000000000	0.00000000000000	
1.55666200000000	-7.37888100000000	724.47322899999995	48.62183400000000	0.17501200000000	0.00000000000000	0.11627000000000	0.00000000000000	0.00000000000000	0.00000000000000	0.00000000000000	0.00000000000000	0.00000000000000	0.00000000000000	19.84955800000000	0.00000000000000	0.00000000000000	0.00000000000000	0.00000000000000	
1.55832700000000	-7.93484600000000	726.38127399999996	48.67652000000000	0.17397700000000	0.00000000000000	0.11619200000000	0.00000000000000	0.00000000000000	0.00000000000000	0.00000000000000	0.00000000000000	0.00000000000000	0.00000000000000	19.96904100000000	0.00000000000000	0.00000000000000	0.00000000000000	0.00000000000000	
1.55999700000000	-8.49833000000000	728.30953799999997	48.73438900000000	0.17293200000000	0.00000000000000	0.11611500000000	0.00000000000000	0.00000000000000	0.00000000000000	0.00000000000000	0.00000000000000	0.00000000000000	0.00000000000000	20.09037200000000	0.00000000000000	0.00000000000000	0.00000000000000	0.00000000000000	
1.56166000000000	-9.06871500000000	730.25594500000000	48.79546700000000	0.17187900000000	0.00000000000000	0.11603800000000	0.00000000000000	0.00000000000000	0.00000000000000	0.00000000000000	0.00000000000000	0.00000000000000	0.00000000000000	20.21342000000000	0.00000000000000	0.00000000000000	0.00000000000000	0.00000000000000	
1.56332500000000	-9.64533400000000	732.21847700000001	48.85978300000000	0.17081900000000	0.00000000000000	0.11596300000000	0.00000000000000	0.00000000000000	0.00000000000000	0.00000000000000	0.00000000000000	0.00000000000000	0.00000000000000	20.33804800000000	0.00000000000000	0.00000000000000	0.00000000000000	0.00000000000000	
1.56499200000000	-10.22748100000000	734.19518500000004	48.92737500000000	0.16975500000000	0.00000000000000	0.11588800000000	0.00000000000000	0.00000000000000	0.00000000000000	0.00000000000000	0.00000000000000	0.00000000000000	0.00000000000000	20.46410700000000	0.00000000000000	0.00000000000000	0.00000000000000	0.00000000000000	
1.56665700000000	-10.81440700000000	736.18417799999997	48.99828900000000	0.16868800000000	0.00000000000000	0.11581300000000	0.00000000000000	0.00000000000000	0.00000000000000	0.00000000000000	0.00000000000000	0.00000000000000	0.00000000000000	20.59144100000000	0.00000000000000	0.00000000000000	0.00000000000000	0.00000000000000	
1.56832300000000	-11.40532900000000	738.18362900000000	49.07257500000000	0.16762100000000	0.00000000000000	0.11574000000000	0.00000000000000	0.00000000000000	0.00000000000000	0.00000000000000	0.00000000000000	0.00000000000000	0.00000000000000	20.71988200000000	0.00000000000000	0.00000000000000	0.00000000000000	0.00000000000000	
1.56999400000000	-11.99943000000000	740.19176600000003	49.15029100000000	0.16655500000000	0.00000000000000	0.11566600000000	0.00000000000000	0.00000000000000	0.00000000000000	0.00000000000000	0.00000000000000	0.00000000000000	0.00000000000000	20.84925700000000	0.00000000000000	0.00000000000000	0.00000000000000	0.00000000000000	
1.57165700000000	-12.59586600000000	742.20687699999996	49.23149800000000	0.16549200000000	0.00000000000000	0.11559300000000	0.00000000000000	0.00000000000000	0.00000000000000	0.00000000000000	0.00000000000000	0.00000000000000	0.00000000000000	20.97937900000000	0.00000000000000	0.00000000000000	0.00000000000000	0.00000000000000	
1.57332600000000	-13.19376700000000	744.22729900000002	49.31626500000000	0.16443300000000	0.00000000000000	0.11552100000000	0.00000000000000	0.00000000000000	0.00000000000000	0.00000000000000	0.00000000000000	0.00000000000000	0.00000000000000	21.11005400000000	0.00000000000000	0.00000000000000	0.00000000000000	0.00000000000000	
